<svg width="13" height="11" viewBox="0 0 13 11" fill="none" xmlns="http://www.w3.org/2000/svg">
<path d="M6 4C7.10457 4 8 3.10457 8 2C8 0.89543 7.10457 0 6 0C4.89543 0 4 0.89543 4 2C4 3.10457 4.89543 4 6 4Z" fill="#EFEFEF"/>
<path d="M6 3H2V4H6V3Z" fill="#EFEFEF"/>
<path d="M2.5 3.5H5.5H2.5Z" stroke="#DAC278"/>
<path d="M10.5 6C11.8807 6 13 4.88071 13 3.5C13 2.11929 11.8807 1 10.5 1C9.11929 1 8 2.11929 8 3.5C8 4.88071 9.11929 6 10.5 6Z" fill="#EFEFEF"/>
<path d="M1 5H11V5.922L1 6V5Z" fill="#EFEFEF"/>
<path d="M1 5H11V5.92187L1 6V5Z" fill="#DAC278"/>
<path d="M10 11C11.1046 11 12 10.1046 12 9C12 7.89543 11.1046 7 10 7C8.89543 7 8 7.89543 8 9C8 10.1046 8.89543 11 10 11Z" fill="#EFEFEF"/>
<path d="M10 7H0V8H10V7Z" fill="#EFEFEF"/>
<path d="M0.5 7.5H9.5H0.5Z" stroke="#DAC278"/>
</svg>
